# xmcd
# Track frame offsets:
# 150
# 14433
# 28675
# 46061
# 63138
# 80129
# 94846
# 111640
# 126933
# 142522
# 158379
# 172951
# 187550
# 204848
# 222418
# 239469
# 258427
# 273979
#
# Disc length: 3850 seconds
# Revision: 0
# Processed by: cddbd v1.5.2PL0 Copyright (c) Steve Scherf et al.
# Submitted via: VisiTrax 2.11.2.271 - For more info visit www.synapsa.com
#
DISCID=ea0f0812
DTITLE=Various Artist - Promo Only Country - October 2011
DYEAR=2011
DGENRE=Country
TTITLE0=Bomshel - Halleluyall
TTITLE1=Eric Church - Drink In My Hand
TTITLE2=Reba McEntire - Somebody's Chelsea
TTITLE3=Keth Bryant - Can't Tell Somebody (Who To Love)
TTITLE4=Steel Magnolia - Bulletproof
TTITLE5=Miranda Lambert - Baggage Claim
TTITLE6=Bill Gentry - This Letter (Clean Edit)
TTITLE7=Casey James - Let's Don't Call It A Night
TTITLE8=Justin Moore - Bait A Hook
TTITLE9=Sonia Leigh - My Name Is Money
TTITLE10=Lady Antebellum - We Owned The Night
TTITLE11=Randy Travis - Everything And All
TTITLE12=The Band Perry - All Your Life
TTITLE13=Hali Hicks - Last Night Of Spring
TTITLE14=Jeff Bates - He Wasn't Like Us
TTITLE15=Risa Binder - You Made It Rain
TTITLE16=Levi Hart - Set It Free
TTITLE17=Johnny Patton - Lonesome For Someone
EXTD=IT'S SMURFTASTIC Y'ALL!!
EXTT0=
EXTT1=
EXTT2=
EXTT3=
EXTT4=
EXTT5=
EXTT6=
EXTT7=
EXTT8=
EXTT9=
EXTT10=
EXTT11=
EXTT12=
EXTT13=
EXTT14=
EXTT15=
EXTT16=
EXTT17=
PLAYORDER=
